# xmcd
# 
# Track frame offsets:
#     150
#     21530
#     40813
#     58551
#     77293
#     96755
#     117396
#     137077
#     155190
#     172998
# 
# Disc length: 2553
# 
# Revision: 1
# Processed by: cddbd v1.5.2PL0 Copyright (c) Steve Scherf et al.
# Submitted via: fre:ac v1.0.31
# 
DISCID=7e09f70a
DTITLE=John McAndrew - Souls
DYEAR=2017
DGENRE=Blues
TTITLE0=Birmingham
TTITLE1=Up On River Road
TTITLE2=A Stronger Love
TTITLE3=Only You
TTITLE4=Trying To Be A Man
TTITLE5=Broken Soul
TTITLE6=Expecting Nothing In Return
TTITLE7=A Few Kind Words
TTITLE8=Me, My Soul, and My Heart
TTITLE9=Down On Lake Street
EXTD=
EXTT0=
EXTT1=
EXTT2=
EXTT3=
EXTT4=
EXTT5=
EXTT6=
EXTT7=
EXTT8=
EXTT9=
PLAYORDER=
